<?xml version="1.0" encoding="utf-8"?>
<!-- Generator: Adobe Illustrator 16.0.0, SVG Export Plug-In . SVG Version: 6.00 Build 0)  -->
<!DOCTYPE svg PUBLIC "-//W3C//DTD SVG 1.1//EN" "http://www.w3.org/Graphics/SVG/1.1/DTD/svg11.dtd">
<svg version="1.1" xmlns="http://www.w3.org/2000/svg" xmlns:xlink="http://www.w3.org/1999/xlink" x="0px" y="0px"
	 width="556.472px" height="133.494px" viewBox="0 0 556.472 133.494" enable-background="new 0 0 556.472 133.494"
	 xml:space="preserve">
<g id="Layer_2">
	<g>
		<path fill="#6D6E71" d="M142.071,90.912c4.291,0,6.814,3.204,6.814,7.32c0,3.999-2.524,7.203-6.814,7.203
			c-4.291,0-6.815-3.204-6.815-7.203C135.256,94.116,137.78,90.912,142.071,90.912z M142.071,102.872
			c2.737,0,3.767-2.329,3.767-4.64c0-2.427-1.029-4.757-3.767-4.757c-2.738,0-3.767,2.33-3.767,4.757
			C138.304,100.542,139.333,102.872,142.071,102.872z"/>
		<path fill="#6D6E71" d="M161.458,95.067h2.621v1.397h0.058c0.699-1.126,1.903-1.669,3.068-1.669c2.932,0,3.669,1.65,3.669,4.135
			v6.175h-2.757v-5.67c0-1.65-0.486-2.466-1.767-2.466c-1.495,0-2.136,0.835-2.136,2.874v5.262h-2.757V95.067z"/>
		<path fill="#6D6E71" d="M186.03,100.755c0.078,1.748,0.932,2.544,2.465,2.544c1.107,0,2-0.68,2.175-1.301h2.427
			c-0.776,2.368-2.427,3.378-4.698,3.378c-3.165,0-5.126-2.175-5.126-5.281c0-3.009,2.078-5.3,5.126-5.3
			c3.417,0,5.067,2.873,4.873,5.96H186.03z M190.515,99.008c-0.252-1.398-0.854-2.136-2.194-2.136c-1.748,0-2.252,1.359-2.291,2.136
			H190.515z"/>
		<path fill="#6D6E71" d="M226.014,95.902c-0.194-1.379-1.514-2.427-3.029-2.427c-2.737,0-3.767,2.33-3.767,4.757
			c0,2.311,1.029,4.64,3.767,4.64c1.864,0,2.912-1.281,3.146-3.106h2.951c-0.311,3.456-2.699,5.67-6.097,5.67
			c-4.291,0-6.815-3.204-6.815-7.203c0-4.116,2.524-7.32,6.815-7.32c3.048,0,5.611,1.786,5.98,4.99H226.014z"/>
		<path fill="#6D6E71" d="M241.733,91.242h2.757v13.863h-2.757V91.242z"/>
		<path fill="#6D6E71" d="M260.288,93.514h-2.757v-2.272h2.757V93.514z M257.531,95.067h2.757v10.038h-2.757V95.067z"/>
		<path fill="#6D6E71" d="M280.085,98.6c-0.175-1.126-0.893-1.728-2.039-1.728c-1.767,0-2.35,1.786-2.35,3.262
			c0,1.437,0.563,3.165,2.291,3.165c1.282,0,2.02-0.815,2.194-2.039h2.66c-0.35,2.66-2.194,4.116-4.834,4.116
			c-3.029,0-5.067-2.136-5.067-5.146c0-3.125,1.864-5.436,5.126-5.436c2.368,0,4.543,1.242,4.718,3.805H280.085z"/>
		<path fill="#6D6E71" d="M295.436,91.242h2.757v7.437l3.476-3.611h3.262l-3.786,3.688l4.213,6.35h-3.339l-2.757-4.485l-1.068,1.029
			v3.456h-2.757V91.242z"/>
		<path fill="#27AAE1" d="M331.983,91.242h3.126l5.185,13.863h-3.165l-1.049-3.087h-5.184l-1.087,3.087h-3.087L331.983,91.242z
			 M331.692,99.746h3.592l-1.747-5.087h-0.039L331.692,99.746z"/>
		<path fill="#27AAE1" d="M361.409,105.105h-2.621v-1.398h-0.059c-0.698,1.126-1.902,1.67-3.067,1.67c-2.932,0-3.67-1.65-3.67-4.136
			v-6.174h2.758v5.669c0,1.65,0.485,2.466,1.767,2.466c1.495,0,2.136-0.835,2.136-2.873v-5.262h2.757V105.105z"/>
		<path fill="#27AAE1" d="M377.787,95.067h2.02v1.845h-2.02v4.97c0,0.933,0.233,1.165,1.165,1.165c0.291,0,0.563-0.02,0.854-0.077
			v2.155c-0.467,0.077-1.068,0.097-1.611,0.097c-1.689,0-3.165-0.389-3.165-2.388v-5.922h-1.67v-1.845h1.67v-3.01h2.757V95.067z"/>
		<path fill="#27AAE1" d="M396.789,94.795c3.164,0,5.203,2.097,5.203,5.3c0,3.185-2.039,5.281-5.203,5.281
			c-3.146,0-5.185-2.097-5.185-5.281C391.604,96.892,393.644,94.795,396.789,94.795z M396.789,103.299
			c1.883,0,2.446-1.611,2.446-3.204c0-1.611-0.563-3.223-2.446-3.223c-1.864,0-2.428,1.611-2.428,3.223
			C394.361,101.688,394.925,103.299,396.789,103.299z"/>
		<path fill="#27AAE1" d="M414.644,95.067h2.602v1.359h0.039c0.718-1.029,1.767-1.631,3.067-1.631c1.262,0,2.389,0.466,2.932,1.669
			c0.583-0.873,1.631-1.669,3.029-1.669c2.136,0,3.669,0.99,3.669,3.592v6.718h-2.757v-5.689c0-1.339-0.116-2.446-1.689-2.446
			c-1.553,0-1.844,1.282-1.844,2.544v5.592h-2.757v-5.631c0-1.165,0.077-2.505-1.67-2.505c-0.544,0-1.864,0.35-1.864,2.311v5.825
			h-2.757V95.067z"/>
		<path fill="#27AAE1" d="M442.825,98.154c0.155-2.582,2.466-3.358,4.718-3.358c2,0,4.407,0.446,4.407,2.854v5.223
			c0,0.913,0.097,1.825,0.35,2.233h-2.796c-0.098-0.311-0.175-0.641-0.194-0.971c-0.874,0.912-2.155,1.242-3.378,1.242
			c-1.903,0-3.417-0.951-3.417-3.01c0-2.271,1.708-2.814,3.417-3.048c1.688-0.252,3.262-0.194,3.262-1.32
			c0-1.185-0.815-1.359-1.786-1.359c-1.049,0-1.729,0.428-1.825,1.515H442.825z M449.193,100.193
			c-0.466,0.407-1.437,0.427-2.291,0.582c-0.854,0.175-1.631,0.466-1.631,1.476c0,1.029,0.796,1.281,1.688,1.281
			c2.155,0,2.233-1.708,2.233-2.311V100.193z"/>
		<path fill="#27AAE1" d="M468.367,95.067h2.02v1.845h-2.02v4.97c0,0.933,0.232,1.165,1.165,1.165c0.291,0,0.563-0.02,0.854-0.077
			v2.155c-0.467,0.077-1.068,0.097-1.612,0.097c-1.688,0-3.164-0.389-3.164-2.388v-5.922h-1.67v-1.845h1.67v-3.01h2.757V95.067z"/>
		<path fill="#27AAE1" d="M485.33,93.514h-2.757v-2.272h2.757V93.514z M482.573,95.067h2.757v10.038h-2.757V95.067z"/>
		<path fill="#27AAE1" d="M503.168,94.795c3.165,0,5.203,2.097,5.203,5.3c0,3.185-2.038,5.281-5.203,5.281
			c-3.146,0-5.184-2.097-5.184-5.281C497.984,96.892,500.022,94.795,503.168,94.795z M503.168,103.299
			c1.883,0,2.446-1.611,2.446-3.204c0-1.611-0.563-3.223-2.446-3.223c-1.864,0-2.427,1.611-2.427,3.223
			C500.741,101.688,501.304,103.299,503.168,103.299z"/>
		<path fill="#27AAE1" d="M520.944,95.067h2.62v1.397h0.059c0.699-1.126,1.902-1.669,3.067-1.669c2.933,0,3.67,1.65,3.67,4.135
			v6.175h-2.757v-5.67c0-1.65-0.485-2.466-1.767-2.466c-1.495,0-2.136,0.835-2.136,2.874v5.262h-2.757V95.067z"/>
	</g>
</g>
<g id="Layer_1">
	<g>
		<path fill="#27AAE1" d="M135.256,43.794h25.704c4.534,0,8.087,1.36,10.659,4.081c1.147,1.074,1.943,2.11,2.387,3.109
			c1,1.999,1.499,3.951,1.499,5.857v1.139c0,2.924-1.268,5.782-3.803,8.576c-1.629,1.555-3.109,2.553-4.441,2.998
			c3.368,3.591,5.052,8.337,5.052,14.239h-8.078v-0.61c0-4.367-1.767-7.837-5.301-10.409c-2.017-1.425-4.654-2.138-7.911-2.138
			h-15.767v-7.716h26.204c2.868,0,4.811-1.415,5.829-4.247c0.111-0.574,0.185-1.055,0.222-1.443c0-1.573-0.657-2.998-1.971-4.274
			c-1.128-0.889-2.332-1.333-3.608-1.333c0-0.075-0.389-0.111-1.166-0.111h-25.51V43.794z"/>
		<path fill="#27AAE1" d="M199.682,43.822h0.277c6.144,0,11.39,2.517,15.738,7.55c2.813,3.775,4.219,7.883,4.219,12.325v0.278
			c0,6.143-2.572,11.361-7.717,15.654c-3.738,2.775-7.837,4.163-12.296,4.163h-0.277c-6.107,0-11.335-2.498-15.683-7.494
			c-1.518-2.128-2.582-4.081-3.192-5.857c-0.722-2.221-1.083-4.395-1.083-6.522v-0.277c0-6.032,2.489-11.195,7.467-15.489
			c3.368-2.405,6.439-3.756,9.215-4.053C197.202,43.915,198.312,43.822,199.682,43.822z M187.663,63.752
			c0,3.479,1.36,6.532,4.08,9.159c2.424,2.073,4.969,3.108,7.633,3.108h0.777c2.146,0,4.33-0.73,6.551-2.192
			c2.294-1.684,3.849-3.831,4.663-6.44c0.259-0.684,0.444-1.859,0.555-3.523c0-3.406-1.323-6.412-3.97-9.022
			c-2.48-2.202-5.2-3.303-8.16-3.303c-3.461,0-6.533,1.443-9.216,4.331c-1.128,1.48-1.841,2.738-2.137,3.775
			C187.921,61.087,187.663,62.457,187.663,63.752z"/>
		<path fill="#27AAE1" d="M224.136,43.822h18.68c4.238,0,7.68,0.694,10.326,2.082c1.147,0.537,2.424,1.342,3.831,2.415
			c4.903,4.219,7.356,9.391,7.356,15.517c0,6.161-2.508,11.371-7.522,15.627c-2.461,1.943-5.376,3.267-8.744,3.97
			c-1.591,0.239-3.275,0.36-5.052,0.36h-18.125c-0.537-0.093-0.805-0.435-0.805-1.026v-6.718h18.347
			c3.091,0,5.367-0.397,6.828-1.193c2.924-1.333,5.016-3.608,6.273-6.829c0.519-1.609,0.777-3.08,0.777-4.412
			c0-3.535-1.61-6.709-4.83-9.521c-2.091-1.646-4.719-2.47-7.883-2.47h-19.458V43.822z M224.136,59.95h20.846v7.715h-20.846V59.95z"
			/>
		<path fill="#27AAE1" d="M288.615,83.792c-6.402,0-11.76-2.646-16.071-7.938c-0.814-1.055-1.397-1.971-1.748-2.748
			c-0.52-0.906-1.01-2.127-1.472-3.664c-0.556-1.85-0.833-4.367-0.833-7.549V43.822h8.051v18.931c0,6.366,2.877,10.622,8.633,12.769
			c1.294,0.371,2.441,0.564,3.44,0.583c0.999-0.019,2.156-0.212,3.47-0.583c5.755-2.146,8.633-6.402,8.633-12.769V43.822h8.022
			v18.071c0,3.182-0.278,5.699-0.833,7.549c-0.463,1.537-0.954,2.758-1.472,3.664c-0.352,0.76-0.926,1.676-1.721,2.748
			C300.385,81.147,295.019,83.792,288.615,83.792z"/>
		<path fill="#27AAE1" d="M325.617,43.822h26.952v8.217h-27.202c-2.129,0-3.434,1.046-3.914,3.137v0.583
			c0,1.241,0.694,2.276,2.082,3.109c0.425,0.167,0.869,0.25,1.332,0.25h13.684c3.517,0,5.904,0.36,7.162,1.083
			c3.108,1.388,5.255,3.506,6.439,6.355c0.667,1.758,1,3.469,1,5.135c0,3.997-1.87,7.366-5.607,10.104
			c-1.11,0.704-2.388,1.249-3.831,1.638c-1.073,0.239-2.858,0.36-5.357,0.36h-25.425l-0.028-8.216h27.313
			c2.295,0,3.756-1.129,4.386-3.387l0.056-0.75c0-1.591-0.786-2.813-2.359-3.664c-0.556-0.295-1.269-0.443-2.138-0.443h-15.35
			c-4.016,0-7.365-1.758-10.048-5.273c-1.166-1.943-1.749-3.914-1.749-5.913v-1.083c0-4.108,1.999-7.356,5.996-9.743
			C320.676,44.322,322.878,43.822,325.617,43.822z"/>
		<path fill="#6D6E71" d="M357.315,43.822h40.249v7.745h-16.072v32.226h-8.104V51.566h-16.072V43.822z"/>
		<path fill="#6D6E71" d="M424.378,43.794h17.516v7.772h-18.654c-3.367,0-5.921,0.62-7.66,1.86c-2.369,1.24-4.183,3.637-5.44,7.189
			c-0.277,1.203-0.416,2.238-0.416,3.109c0,3.016,1.128,5.847,3.386,8.492c1.48,1.426,2.868,2.37,4.164,2.832
			c1.425,0.648,3.377,0.971,5.856,0.971h18.765v7.772h-17.877c-4.57,0-7.956-0.555-10.158-1.665
			c-4.923-2.146-8.448-5.663-10.576-10.549c-1.037-2.442-1.555-5.041-1.555-7.799c0-5.959,2.36-11.047,7.079-15.267
			c3.09-2.332,5.885-3.71,8.383-4.136C418.466,43.988,420.862,43.794,424.378,43.794z M420.991,59.95h20.902v7.688h-20.902V59.95z"
			/>
		<path fill="#6D6E71" d="M458.853,43.822h26.952v8.217h-27.202c-2.129,0-3.434,1.046-3.914,3.137v0.583
			c0,1.241,0.694,2.276,2.082,3.109c0.425,0.167,0.869,0.25,1.332,0.25h13.684c3.517,0,5.904,0.36,7.162,1.083
			c3.109,1.388,5.255,3.506,6.439,6.355c0.667,1.758,1,3.469,1,5.135c0,3.997-1.87,7.366-5.607,10.104
			c-1.11,0.704-2.387,1.249-3.831,1.638c-1.073,0.239-2.858,0.36-5.356,0.36h-25.426l-0.028-8.216h27.313
			c2.295,0,3.756-1.129,4.386-3.387l0.056-0.75c0-1.591-0.786-2.813-2.359-3.664c-0.556-0.295-1.269-0.443-2.138-0.443h-15.349
			c-4.017,0-7.366-1.758-10.049-5.273c-1.166-1.943-1.749-3.914-1.749-5.913v-1.083c0-4.108,1.999-7.356,5.996-9.743
			C453.911,44.322,456.113,43.822,458.853,43.822z"/>
		<path fill="#6D6E71" d="M490.551,43.822H530.8v7.745h-16.072v32.226h-8.104V51.566h-16.072V43.822z"/>
	</g>
</g>
<g id="Layer_3">
	<path fill="#00AEEF" d="M32.639,68.166c0.566-17.269,13.786-31.33,30.688-33.211V19.35C37.795,21.221,17.603,42.274,17.1,68.166
		H32.639z"/>
	<path fill="#6D6E71" d="M31.865,73.098H16.283c1.92,24.518,21.533,44.055,46.085,45.855v-15.276
		C46.333,101.893,33.613,89.146,31.865,73.098z"/>
	<path fill="#6D6E71" d="M101.752,68.166h15.208c-0.503-25.892-20.695-46.944-46.231-48.816v15.563
		C87.793,36.646,101.179,50.785,101.752,68.166z"/>
	<path fill="#00AEEF" d="M100.603,73.098c-1.755,16.158-14.64,28.978-30.833,30.622v15.233
		c24.552-1.801,44.167-21.338,46.084-45.855H100.603z"/>
	<path fill="#6D6E71" d="M66.24,44.469c0.197,0,0.393,0.011,0.589,0.016c-1.683-5.02-3.316-8.078-3.316-8.078
		C40.507,39.663,35.95,57.894,35.95,57.894c2.311-0.508,5.202-0.472,8.322-0.106C48.495,49.921,56.826,44.469,66.24,44.469z"/>
	<path fill="#27AAE1" d="M41.337,69.373c0-3.814,0.894-7.45,2.481-10.707c-5.663-0.446-8.665,0.386-8.665,0.386
		c-4.919,13.891,3.4,27.059,3.4,27.059c1.732-2.084,3.547-4.015,5.384-5.798C42.28,76.993,41.337,73.278,41.337,69.373z"/>
	<path fill="#6D6E71" d="M66.24,94.275c-9.349,0-17.631-5.372-21.882-13.152c-1.835,1.809-3.515,3.729-4.865,5.71
		c0,0,7.958,16.207,30.966,14.76c0,0-1.363-2.483-2.956-7.351C67.085,94.264,66.663,94.275,66.24,94.275z"/>
	<path fill="#27AAE1" d="M88.415,80.559c-3.873,7.532-11.476,12.932-20.243,13.632c1.585,4.853,3.011,7.492,3.011,7.492
		c20.111-3.527,25.61-20.203,25.61-20.203C94.045,81.454,91.212,81.106,88.415,80.559z"/>
	<path fill="#6D6E71" d="M93.174,50.732c-1.639,2.267-3.438,4.438-5.287,6.481c2.064,3.613,3.255,7.768,3.255,12.159
		c0,3.676-0.835,7.185-2.317,10.351c4.966,1.099,7.968,1.322,7.968,1.322C104.173,62.524,93.174,50.732,93.174,50.732z"/>
	<path fill="#27AAE1" d="M87.247,56.152c3.411-3.83,5.496-6.65,5.496-6.65C80.877,34.164,64.96,36.407,64.96,36.407
		c1.233,2.508,2.243,5.285,3.07,8.136C76.045,45.135,83.101,49.656,87.247,56.152z"/>
	<g>
		<g>
			<path fill-rule="evenodd" clip-rule="evenodd" fill="#27AAE1" d="M63.961,58.864c0.945,0.189,1.783,0.125,2.285,0.506
				c1.042,0.789,1.875,1.85,2.854,2.731c0.49,0.44,1.097,0.971,1.684,1.015c0.413,0.03,0.977-0.631,1.273-1.105
				c0.099-0.158-0.344-0.814-0.676-1.055c-1.837-1.336-3.718-2.617-5.583-3.915c-0.266-0.187-0.611-0.32-0.775-0.572
				c-0.205-0.319-0.261-0.736-0.381-1.11c0.375-0.096,0.829-0.376,1.109-0.254c1.265,0.55,2.557,1.1,3.696,1.865
				c1.417,0.951,2.801,2.004,4.001,3.211c1.313,1.32,1.159,2.168-0.223,3.392c-0.208,0.185-0.42,0.362-0.788,0.68
				c0.497,0.376,0.942,0.712,1.455,1.099c0.469-0.645,0.897-1.176,1.266-1.75c0.601-0.933,1.396-0.942,2.117-0.313
				c1.916,1.676,3.787,3.406,5.615,5.18c0.282,0.272,0.238,0.885,0.346,1.341c-0.44-0.149-0.985-0.185-1.303-0.471
				c-1.308-1.178-2.542-2.439-3.816-3.656c-0.361-0.345-0.763-0.645-1.127-0.95c-1.733,1.546-1.714,1.667,0.443,3.91
				c0.085-0.021,0.211-0.016,0.248-0.07c1.156-1.674,1.268-1.696,2.492-0.035c1.317,1.79,2.606,3.602,3.841,5.449
				c0.348,0.52,0.461,1.196,0.682,1.8c-0.14,0.071-0.282,0.144-0.422,0.214c-0.243-0.289-0.505-0.564-0.725-0.87
				c-1.24-1.731-2.448-3.485-3.726-5.187c-0.208-0.277-0.706-0.336-1.07-0.494c0.088,0.359,0.111,0.751,0.274,1.07
				c0.881,1.719,2.094,3.332,2.637,5.146c1.081,3.604-1.648,6.868-5.387,6.46c-1.794-0.196-3.513-1.059-5.271-1.605
				c-0.469-0.144-0.957-0.228-1.437-0.338c-0.08,0.226-0.161,0.454-0.241,0.681c2.527,1.253,5.053,2.509,7.646,3.797
				c-1.404,0.703-7.972-2.096-9.516-3.979c0.363-0.435,0.737-0.881,1.159-1.386c-0.417-0.35-0.813-0.721-1.249-1.037
				c-0.932-0.679-2.272-0.325-2.529,0.753c-0.079,0.33,0.328,0.919,0.672,1.179c1.146,0.863,2.37,1.621,3.553,2.438
				c0.458,0.314,0.931,0.631,1.306,1.03c0.213,0.227,0.241,0.627,0.353,0.947c-0.337,0.049-0.799,0.264-0.992,0.118
				c-2.293-1.713-4.569-3.45-6.774-5.273c-0.217-0.179-0.075-1.039,0.15-1.445c0.349-0.63,0.91-1.143,1.435-1.769
				c-0.333-0.368-0.684-0.756-1.033-1.141c-0.131,0.089-0.237,0.122-0.273,0.189c-1.363,2.607-2.452,2.635-4.793,0.591
				c-1.832-1.599-3.397-3.515-4.989-5.37c-0.294-0.342-0.141-1.067-0.194-1.615c0.518,0.188,1.158,0.24,1.529,0.585
				c1.359,1.26,2.611,2.637,3.942,3.928c0.657,0.638,1.402,1.189,2.343,1.978c0.375-0.729,1.037-1.429,0.91-1.931
				c-0.13-0.515-1.042-0.821-1.591-1.248c-1.189-0.922-2.416-1.806-3.505-2.834c-0.262-0.249-0.047-1.001-0.053-1.665
				c-3.36-0.237-5.667-2.457-7.606-5.134c-0.777-1.074-1.294-2.335-1.766-3.63c1.265,0.018,1.083,3.476,3.155,0.702
				c0.232,1.047,0.401,1.81,0.612,2.764c0.473-0.353,0.768-0.573,1.074-0.802c1.774,3.4,4.159,4.221,6.632,2.211
				c-1.646-0.273-3.108-0.729-3.694-2.83c0.396,0.332,0.578,0.455,0.724,0.611c0.377,0.402,0.67,0.923,1.119,1.207
				c1.064,0.678,2.838,0.5,2.78-0.183c-0.085-0.983-0.662-1.964-1.187-2.852c-0.214-0.363-0.839-0.485-1.468-0.818
				c1.769-0.101,2.264,0.354,3.31,2.798c1.88-2.085,0.313-5.074-3.248-5.997c0.139-0.321,0.272-0.627,0.516-1.189
				c-0.854-0.069-1.627-0.133-2.273-0.186c-0.03-0.631,0.155-1.4-0.147-1.793c-0.323-0.421-1.107-0.486-1.785-0.741
				C56.231,50.375,62.665,54.98,63.961,58.864z"/>
		</g>
		<path fill-rule="evenodd" clip-rule="evenodd" fill="#FFFFFF" d="M64.315,61.094c0,0,11.252,4.761,15.253,15.456
			C79.568,76.55,74.497,67.381,64.315,61.094z"/>
	</g>
</g>
</svg>
